<?xml version="1.0" encoding="UTF-8" standalone="no"?>
<!DOCTYPE svg PUBLIC "-//W3C//DTD SVG 1.1//EN"
 "http://www.w3.org/Graphics/SVG/1.1/DTD/svg11.dtd">
<!-- Generated by graphviz version 2.43.0 (0)
 -->
<!-- Title: %3 Pages: 1 -->
<svg width="1191pt" height="415pt"
 viewBox="0.00 0.00 1190.50 415.48" xmlns="http://www.w3.org/2000/svg" xmlns:xlink="http://www.w3.org/1999/xlink">
<g id="graph0" class="graph" transform="scale(1 1) rotate(0) translate(36 379.48)">
<title>%3</title>
<polygon fill="dimgray" stroke="transparent" points="-36,36 -36,-379.48 1154.5,-379.48 1154.5,36 -36,36"/>
<text text-anchor="middle" x="559.25" y="-328.28" font-family="Helvetica,sans-Serif" font-size="14.00">Sweep&#39;s Plan &amp; Progress</text>
<!-- start -->
<g id="node1" class="node">
<title>start</title>
</g>
<!-- 2b3093b8&#45;c381&#45;4918&#45;82d5&#45;23585454c783 -->
<g id="node3" class="node">
<title>2b3093b8&#45;c381&#45;4918&#45;82d5&#45;23585454c783</title>
<ellipse fill="#0ee832" stroke="black" cx="721.5" cy="-277.61" rx="255.95" ry="26.74"/>
<text text-anchor="middle" x="721.5" y="-281.41" font-family="Helvetica,sans-Serif" font-size="14.00">✓ Modify</text>
<text text-anchor="middle" x="721.5" y="-266.41" font-family="Helvetica,sans-Serif" font-size="14.00">packages/web&#45;docs/pages/advanced/modules.md</text>
</g>
<!-- start&#45;&gt;2b3093b8&#45;c381&#45;4918&#45;82d5&#45;23585454c783 -->
<g id="edge7" class="edge">
<title>start&#45;&gt;2b3093b8&#45;c381&#45;4918&#45;82d5&#45;23585454c783</title>
<path fill="none" stroke="black" d="M414.38,-277.61C418.1,-277.61 433.31,-277.61 455.11,-277.61"/>
<polygon fill="black" stroke="black" points="455.2,-281.11 465.2,-277.61 455.2,-274.11 455.2,-281.11"/>
<text text-anchor="middle" x="439.76" y="-284.41" font-family="Helvetica,sans-Serif" font-size="14.00">Start</text>
</g>
<!-- end -->
<g id="node2" class="node">
<title>end</title>
</g>
<!-- 2b3093b8&#45;c381&#45;4918&#45;82d5&#45;23585454c783&#45;&gt;end -->
<g id="edge8" class="edge">
<title>2b3093b8&#45;c381&#45;4918&#45;82d5&#45;23585454c783&#45;&gt;end</title>
<path fill="none" stroke="black" d="M977.54,-277.61C997.95,-277.61 1014.58,-277.61 1024.71,-277.61"/>
<polygon fill="black" stroke="black" points="1024.89,-281.11 1034.89,-277.61 1024.89,-274.11 1024.89,-281.11"/>
<text text-anchor="middle" x="1006.24" y="-284.41" font-family="Helvetica,sans-Serif" font-size="14.00">Finish</text>
</g>
<!-- 8d0176c9&#45;0a63&#45;4a7b&#45;93ee&#45;c1a4724aa884 -->
<g id="node4" class="node">
<title>8d0176c9&#45;0a63&#45;4a7b&#45;93ee&#45;c1a4724aa884</title>
<polygon fill="#ee0000" stroke="black" points="586,-213.74 71,-213.74 71,-177.74 586,-177.74 586,-213.74"/>
<text text-anchor="middle" x="328.5" y="-192.04" font-family="Helvetica,sans-Serif" font-size="14.00">✗ Ran sandbox for `packages/web&#45;docs/pages/advanced/modules.md`.</text>
</g>
<!-- 2b3093b8&#45;c381&#45;4918&#45;82d5&#45;23585454c783&#45;&gt;8d0176c9&#45;0a63&#45;4a7b&#45;93ee&#45;c1a4724aa884 -->
<g id="edge1" class="edge">
<title>2b3093b8&#45;c381&#45;4918&#45;82d5&#45;23585454c783&#45;&gt;8d0176c9&#45;0a63&#45;4a7b&#45;93ee&#45;c1a4724aa884</title>
<path fill="none" stroke="black" stroke-dasharray="5,2" d="M607.83,-253.51C548.91,-241.53 477.83,-227.09 422.12,-215.77"/>
<polygon fill="black" stroke="black" points="422.76,-212.32 412.26,-213.76 421.36,-219.18 422.76,-212.32"/>
</g>
<!-- c596cb8c&#45;4660&#45;41e5&#45;b92e&#45;11b2e44fc0aa -->
<g id="node5" class="node">
<title>c596cb8c&#45;4660&#45;41e5&#45;b92e&#45;11b2e44fc0aa</title>
<polygon fill="white" stroke="black" points="1118.5,-213.74 604.5,-213.74 604.5,-177.74 1118.5,-177.74 1118.5,-213.74"/>
<text text-anchor="middle" x="861.5" y="-192.04" font-family="Helvetica,sans-Serif" font-size="14.00">▶ Ran sandbox for `packages/web&#45;docs/pages/advanced/modules.md`.</text>
</g>
<!-- 2b3093b8&#45;c381&#45;4918&#45;82d5&#45;23585454c783&#45;&gt;c596cb8c&#45;4660&#45;41e5&#45;b92e&#45;11b2e44fc0aa -->
<g id="edge6" class="edge">
<title>2b3093b8&#45;c381&#45;4918&#45;82d5&#45;23585454c783&#45;&gt;c596cb8c&#45;4660&#45;41e5&#45;b92e&#45;11b2e44fc0aa</title>
<path fill="none" stroke="black" stroke-dasharray="5,2" d="M766.18,-251.12C784.31,-240.78 805.05,-228.94 822.55,-218.96"/>
<polygon fill="black" stroke="black" points="824.42,-221.92 831.37,-213.93 820.95,-215.84 824.42,-221.92"/>
</g>
<!-- afed436c&#45;e4f0&#45;490b&#45;882c&#45;c485ca535319 -->
<g id="node6" class="node">
<title>afed436c&#45;e4f0&#45;490b&#45;882c&#45;c485ca535319</title>
<ellipse fill="yellow" stroke="black" cx="182.5" cy="-99.87" rx="125.32" ry="26.74"/>
<text text-anchor="middle" x="182.5" y="-103.67" font-family="Helvetica,sans-Serif" font-size="14.00">⋯ Create</text>
<text text-anchor="middle" x="182.5" y="-88.67" font-family="Helvetica,sans-Serif" font-size="14.00">packages/package.json</text>
</g>
<!-- 8d0176c9&#45;0a63&#45;4a7b&#45;93ee&#45;c1a4724aa884&#45;&gt;afed436c&#45;e4f0&#45;490b&#45;882c&#45;c485ca535319 -->
<g id="edge2" class="edge">
<title>8d0176c9&#45;0a63&#45;4a7b&#45;93ee&#45;c1a4724aa884&#45;&gt;afed436c&#45;e4f0&#45;490b&#45;882c&#45;c485ca535319</title>
<path fill="none" stroke="black" d="M273.28,-177.69C261.31,-172.8 249.08,-166.84 238.5,-159.74 227.97,-152.68 217.94,-143.33 209.35,-134.16"/>
<polygon fill="black" stroke="black" points="211.78,-131.64 202.49,-126.55 206.59,-136.32 211.78,-131.64"/>
<text text-anchor="middle" x="336" y="-148.54" font-family="Helvetica,sans-Serif" font-size="14.00">Additional changes required</text>
</g>
<!-- 5f70f8e5&#45;dccd&#45;4d6c&#45;8d56&#45;ca651ed16c24 -->
<g id="node7" class="node">
<title>5f70f8e5&#45;dccd&#45;4d6c&#45;8d56&#45;ca651ed16c24</title>
<ellipse fill="white" stroke="black" cx="510.5" cy="-99.87" rx="148.48" ry="26.74"/>
<text text-anchor="middle" x="510.5" y="-103.67" font-family="Helvetica,sans-Serif" font-size="14.00">▶ Create</text>
<text text-anchor="middle" x="510.5" y="-88.67" font-family="Helvetica,sans-Serif" font-size="14.00">packages/package&#45;lock.json</text>
</g>
<!-- 8d0176c9&#45;0a63&#45;4a7b&#45;93ee&#45;c1a4724aa884&#45;&gt;5f70f8e5&#45;dccd&#45;4d6c&#45;8d56&#45;ca651ed16c24 -->
<g id="edge4" class="edge">
<title>8d0176c9&#45;0a63&#45;4a7b&#45;93ee&#45;c1a4724aa884&#45;&gt;5f70f8e5&#45;dccd&#45;4d6c&#45;8d56&#45;ca651ed16c24</title>
<path fill="none" stroke="black" d="M390.99,-177.69C405.34,-172.75 420.26,-166.76 433.5,-159.74 447.39,-152.38 461.4,-142.55 473.59,-133.03"/>
<polygon fill="black" stroke="black" points="476.1,-135.51 481.72,-126.53 471.72,-130.05 476.1,-135.51"/>
<text text-anchor="middle" x="554" y="-148.54" font-family="Helvetica,sans-Serif" font-size="14.00">Additional changes required</text>
</g>
<!-- d6e7801f&#45;1612&#45;4d6f&#45;a2b9&#45;1d455f3eaf2c -->
<g id="node8" class="node">
<title>d6e7801f&#45;1612&#45;4d6f&#45;a2b9&#45;1d455f3eaf2c</title>
<polygon fill="white" stroke="black" points="329,-36 0,-36 0,0 329,0 329,-36"/>
<text text-anchor="middle" x="164.5" y="-14.3" font-family="Helvetica,sans-Serif" font-size="14.00">▶ Ran sandbox for `packages/package.json`.</text>
</g>
<!-- afed436c&#45;e4f0&#45;490b&#45;882c&#45;c485ca535319&#45;&gt;d6e7801f&#45;1612&#45;4d6f&#45;a2b9&#45;1d455f3eaf2c -->
<g id="edge3" class="edge">
<title>afed436c&#45;e4f0&#45;490b&#45;882c&#45;c485ca535319&#45;&gt;d6e7801f&#45;1612&#45;4d6f&#45;a2b9&#45;1d455f3eaf2c</title>
<path fill="none" stroke="black" stroke-dasharray="5,2" d="M176.61,-72.72C174.68,-64.18 172.54,-54.68 170.6,-46.08"/>
<polygon fill="black" stroke="black" points="173.98,-45.13 168.36,-36.15 167.15,-46.67 173.98,-45.13"/>
</g>
<!-- fdaea952&#45;c7f5&#45;41b6&#45;b5c1&#45;3aedf036c170 -->
<g id="node9" class="node">
<title>fdaea952&#45;c7f5&#45;41b6&#45;b5c1&#45;3aedf036c170</title>
<polygon fill="white" stroke="black" points="709.5,-36 347.5,-36 347.5,0 709.5,0 709.5,-36"/>
<text text-anchor="middle" x="528.5" y="-14.3" font-family="Helvetica,sans-Serif" font-size="14.00">▶ Ran sandbox for `packages/package&#45;lock.json`.</text>
</g>
<!-- 5f70f8e5&#45;dccd&#45;4d6c&#45;8d56&#45;ca651ed16c24&#45;&gt;fdaea952&#45;c7f5&#45;41b6&#45;b5c1&#45;3aedf036c170 -->
<g id="edge5" class="edge">
<title>5f70f8e5&#45;dccd&#45;4d6c&#45;8d56&#45;ca651ed16c24&#45;&gt;fdaea952&#45;c7f5&#45;41b6&#45;b5c1&#45;3aedf036c170</title>
<path fill="none" stroke="black" stroke-dasharray="5,2" d="M516.39,-72.72C518.32,-64.18 520.46,-54.68 522.4,-46.08"/>
<polygon fill="black" stroke="black" points="525.85,-46.67 524.64,-36.15 519.02,-45.13 525.85,-46.67"/>
</g>
</g>
</svg>
