<?xml version="1.0" encoding="UTF-8" standalone="no"?>
<!DOCTYPE svg PUBLIC "-//W3C//DTD SVG 1.1//EN"
 "http://www.w3.org/Graphics/SVG/1.1/DTD/svg11.dtd">
<!-- Generated by graphviz version 2.43.0 (0)
 -->
<!-- Title: %3 Pages: 1 -->
<svg width="1193pt" height="415pt"
 viewBox="0.00 0.00 1192.50 415.48" xmlns="http://www.w3.org/2000/svg" xmlns:xlink="http://www.w3.org/1999/xlink">
<g id="graph0" class="graph" transform="scale(1 1) rotate(0) translate(36 379.48)">
<title>%3</title>
<polygon fill="dimgray" stroke="transparent" points="-36,36 -36,-379.48 1156.5,-379.48 1156.5,36 -36,36"/>
<text text-anchor="middle" x="560.25" y="-328.28" font-family="Helvetica,sans-Serif" font-size="14.00">Sweep&#39;s Plan &amp; Progress</text>
<!-- start -->
<g id="node1" class="node">
<title>start</title>
</g>
<!-- 2b3093b8&#45;c381&#45;4918&#45;82d5&#45;23585454c783 -->
<g id="node3" class="node">
<title>2b3093b8&#45;c381&#45;4918&#45;82d5&#45;23585454c783</title>
<ellipse fill="#0ee832" stroke="black" cx="723.5" cy="-277.61" rx="255.95" ry="26.74"/>
<text text-anchor="middle" x="723.5" y="-281.41" font-family="Helvetica,sans-Serif" font-size="14.00">✓ Modify</text>
<text text-anchor="middle" x="723.5" y="-266.41" font-family="Helvetica,sans-Serif" font-size="14.00">packages/web&#45;docs/pages/advanced/modules.md</text>
</g>
<!-- start&#45;&gt;2b3093b8&#45;c381&#45;4918&#45;82d5&#45;23585454c783 -->
<g id="edge7" class="edge">
<title>start&#45;&gt;2b3093b8&#45;c381&#45;4918&#45;82d5&#45;23585454c783</title>
<path fill="none" stroke="black" d="M416.38,-277.61C420.1,-277.61 435.31,-277.61 457.11,-277.61"/>
<polygon fill="black" stroke="black" points="457.2,-281.11 467.2,-277.61 457.2,-274.11 457.2,-281.11"/>
<text text-anchor="middle" x="441.76" y="-284.41" font-family="Helvetica,sans-Serif" font-size="14.00">Start</text>
</g>
<!-- end -->
<g id="node2" class="node">
<title>end</title>
</g>
<!-- 2b3093b8&#45;c381&#45;4918&#45;82d5&#45;23585454c783&#45;&gt;end -->
<g id="edge8" class="edge">
<title>2b3093b8&#45;c381&#45;4918&#45;82d5&#45;23585454c783&#45;&gt;end</title>
<path fill="none" stroke="black" d="M979.54,-277.61C999.95,-277.61 1016.58,-277.61 1026.71,-277.61"/>
<polygon fill="black" stroke="black" points="1026.89,-281.11 1036.89,-277.61 1026.89,-274.11 1026.89,-281.11"/>
<text text-anchor="middle" x="1008.24" y="-284.41" font-family="Helvetica,sans-Serif" font-size="14.00">Finish</text>
</g>
<!-- 8d0176c9&#45;0a63&#45;4a7b&#45;93ee&#45;c1a4724aa884 -->
<g id="node4" class="node">
<title>8d0176c9&#45;0a63&#45;4a7b&#45;93ee&#45;c1a4724aa884</title>
<polygon fill="#ee0000" stroke="black" points="588,-213.74 73,-213.74 73,-177.74 588,-177.74 588,-213.74"/>
<text text-anchor="middle" x="330.5" y="-192.04" font-family="Helvetica,sans-Serif" font-size="14.00">✗ Ran sandbox for `packages/web&#45;docs/pages/advanced/modules.md`.</text>
</g>
<!-- 2b3093b8&#45;c381&#45;4918&#45;82d5&#45;23585454c783&#45;&gt;8d0176c9&#45;0a63&#45;4a7b&#45;93ee&#45;c1a4724aa884 -->
<g id="edge1" class="edge">
<title>2b3093b8&#45;c381&#45;4918&#45;82d5&#45;23585454c783&#45;&gt;8d0176c9&#45;0a63&#45;4a7b&#45;93ee&#45;c1a4724aa884</title>
<path fill="none" stroke="black" stroke-dasharray="5,2" d="M609.83,-253.51C550.91,-241.53 479.83,-227.09 424.12,-215.77"/>
<polygon fill="black" stroke="black" points="424.76,-212.32 414.26,-213.76 423.36,-219.18 424.76,-212.32"/>
</g>
<!-- c596cb8c&#45;4660&#45;41e5&#45;b92e&#45;11b2e44fc0aa -->
<g id="node5" class="node">
<title>c596cb8c&#45;4660&#45;41e5&#45;b92e&#45;11b2e44fc0aa</title>
<polygon fill="white" stroke="black" points="1120.5,-213.74 606.5,-213.74 606.5,-177.74 1120.5,-177.74 1120.5,-213.74"/>
<text text-anchor="middle" x="863.5" y="-192.04" font-family="Helvetica,sans-Serif" font-size="14.00">▶ Ran sandbox for `packages/web&#45;docs/pages/advanced/modules.md`.</text>
</g>
<!-- 2b3093b8&#45;c381&#45;4918&#45;82d5&#45;23585454c783&#45;&gt;c596cb8c&#45;4660&#45;41e5&#45;b92e&#45;11b2e44fc0aa -->
<g id="edge6" class="edge">
<title>2b3093b8&#45;c381&#45;4918&#45;82d5&#45;23585454c783&#45;&gt;c596cb8c&#45;4660&#45;41e5&#45;b92e&#45;11b2e44fc0aa</title>
<path fill="none" stroke="black" stroke-dasharray="5,2" d="M768.18,-251.12C786.31,-240.78 807.05,-228.94 824.55,-218.96"/>
<polygon fill="black" stroke="black" points="826.42,-221.92 833.37,-213.93 822.95,-215.84 826.42,-221.92"/>
</g>
<!-- afed436c&#45;e4f0&#45;490b&#45;882c&#45;c485ca535319 -->
<g id="node6" class="node">
<title>afed436c&#45;e4f0&#45;490b&#45;882c&#45;c485ca535319</title>
<ellipse fill="#0ee832" stroke="black" cx="184.5" cy="-99.87" rx="125.32" ry="26.74"/>
<text text-anchor="middle" x="184.5" y="-103.67" font-family="Helvetica,sans-Serif" font-size="14.00">✓ Create</text>
<text text-anchor="middle" x="184.5" y="-88.67" font-family="Helvetica,sans-Serif" font-size="14.00">packages/package.json</text>
</g>
<!-- 8d0176c9&#45;0a63&#45;4a7b&#45;93ee&#45;c1a4724aa884&#45;&gt;afed436c&#45;e4f0&#45;490b&#45;882c&#45;c485ca535319 -->
<g id="edge2" class="edge">
<title>8d0176c9&#45;0a63&#45;4a7b&#45;93ee&#45;c1a4724aa884&#45;&gt;afed436c&#45;e4f0&#45;490b&#45;882c&#45;c485ca535319</title>
<path fill="none" stroke="black" d="M275.28,-177.69C263.31,-172.8 251.08,-166.84 240.5,-159.74 229.97,-152.68 219.94,-143.33 211.35,-134.16"/>
<polygon fill="black" stroke="black" points="213.78,-131.64 204.49,-126.55 208.59,-136.32 213.78,-131.64"/>
<text text-anchor="middle" x="338" y="-148.54" font-family="Helvetica,sans-Serif" font-size="14.00">Additional changes required</text>
</g>
<!-- 5f70f8e5&#45;dccd&#45;4d6c&#45;8d56&#45;ca651ed16c24 -->
<g id="node7" class="node">
<title>5f70f8e5&#45;dccd&#45;4d6c&#45;8d56&#45;ca651ed16c24</title>
<ellipse fill="yellow" stroke="black" cx="512.5" cy="-99.87" rx="148.48" ry="26.74"/>
<text text-anchor="middle" x="512.5" y="-103.67" font-family="Helvetica,sans-Serif" font-size="14.00">⋯ Create</text>
<text text-anchor="middle" x="512.5" y="-88.67" font-family="Helvetica,sans-Serif" font-size="14.00">packages/package&#45;lock.json</text>
</g>
<!-- 8d0176c9&#45;0a63&#45;4a7b&#45;93ee&#45;c1a4724aa884&#45;&gt;5f70f8e5&#45;dccd&#45;4d6c&#45;8d56&#45;ca651ed16c24 -->
<g id="edge4" class="edge">
<title>8d0176c9&#45;0a63&#45;4a7b&#45;93ee&#45;c1a4724aa884&#45;&gt;5f70f8e5&#45;dccd&#45;4d6c&#45;8d56&#45;ca651ed16c24</title>
<path fill="none" stroke="black" d="M392.99,-177.69C407.34,-172.75 422.26,-166.76 435.5,-159.74 449.39,-152.38 463.4,-142.55 475.59,-133.03"/>
<polygon fill="black" stroke="black" points="478.1,-135.51 483.72,-126.53 473.72,-130.05 478.1,-135.51"/>
<text text-anchor="middle" x="556" y="-148.54" font-family="Helvetica,sans-Serif" font-size="14.00">Additional changes required</text>
</g>
<!-- d6e7801f&#45;1612&#45;4d6f&#45;a2b9&#45;1d455f3eaf2c -->
<g id="node8" class="node">
<title>d6e7801f&#45;1612&#45;4d6f&#45;a2b9&#45;1d455f3eaf2c</title>
<polygon fill="#ee0000" stroke="black" points="331,-36 0,-36 0,0 331,0 331,-36"/>
<text text-anchor="middle" x="165.5" y="-14.3" font-family="Helvetica,sans-Serif" font-size="14.00">✗ Ran sandbox for `packages/package.json`.</text>
</g>
<!-- afed436c&#45;e4f0&#45;490b&#45;882c&#45;c485ca535319&#45;&gt;d6e7801f&#45;1612&#45;4d6f&#45;a2b9&#45;1d455f3eaf2c -->
<g id="edge3" class="edge">
<title>afed436c&#45;e4f0&#45;490b&#45;882c&#45;c485ca535319&#45;&gt;d6e7801f&#45;1612&#45;4d6f&#45;a2b9&#45;1d455f3eaf2c</title>
<path fill="none" stroke="black" stroke-dasharray="5,2" d="M178.28,-72.72C176.25,-64.18 173.99,-54.68 171.94,-46.08"/>
<polygon fill="black" stroke="black" points="175.3,-45.06 169.58,-36.15 168.49,-46.68 175.3,-45.06"/>
</g>
<!-- fdaea952&#45;c7f5&#45;41b6&#45;b5c1&#45;3aedf036c170 -->
<g id="node9" class="node">
<title>fdaea952&#45;c7f5&#45;41b6&#45;b5c1&#45;3aedf036c170</title>
<polygon fill="white" stroke="black" points="711.5,-36 349.5,-36 349.5,0 711.5,0 711.5,-36"/>
<text text-anchor="middle" x="530.5" y="-14.3" font-family="Helvetica,sans-Serif" font-size="14.00">▶ Ran sandbox for `packages/package&#45;lock.json`.</text>
</g>
<!-- 5f70f8e5&#45;dccd&#45;4d6c&#45;8d56&#45;ca651ed16c24&#45;&gt;fdaea952&#45;c7f5&#45;41b6&#45;b5c1&#45;3aedf036c170 -->
<g id="edge5" class="edge">
<title>5f70f8e5&#45;dccd&#45;4d6c&#45;8d56&#45;ca651ed16c24&#45;&gt;fdaea952&#45;c7f5&#45;41b6&#45;b5c1&#45;3aedf036c170</title>
<path fill="none" stroke="black" stroke-dasharray="5,2" d="M518.39,-72.72C520.32,-64.18 522.46,-54.68 524.4,-46.08"/>
<polygon fill="black" stroke="black" points="527.85,-46.67 526.64,-36.15 521.02,-45.13 527.85,-46.67"/>
</g>
</g>
</svg>
