<?xml version="1.0" encoding="UTF-8" standalone="no"?>
<!DOCTYPE svg PUBLIC "-//W3C//DTD SVG 1.1//EN"
 "http://www.w3.org/Graphics/SVG/1.1/DTD/svg11.dtd">
<!-- Generated by graphviz version 2.43.0 (0)
 -->
<!-- Title: %3 Pages: 1 -->
<svg width="695pt" height="238pt"
 viewBox="0.00 0.00 695.00 237.74" xmlns="http://www.w3.org/2000/svg" xmlns:xlink="http://www.w3.org/1999/xlink">
<g id="graph0" class="graph" transform="scale(1 1) rotate(0) translate(36 201.74)">
<title>%3</title>
<polygon fill="dimgray" stroke="transparent" points="-36,36 -36,-201.74 659,-201.74 659,36 -36,36"/>
<text text-anchor="middle" x="311.5" y="-150.54" font-family="Helvetica,sans-Serif" font-size="14.00">Sweep&#39;s Plan &amp; Progress</text>
<!-- start -->
<g id="node1" class="node">
<title>start</title>
</g>
<!-- 2b3093b8&#45;c381&#45;4918&#45;82d5&#45;23585454c783 -->
<g id="node3" class="node">
<title>2b3093b8&#45;c381&#45;4918&#45;82d5&#45;23585454c783</title>
<ellipse fill="yellow" stroke="black" cx="308.5" cy="-99.87" rx="255.95" ry="26.74"/>
<text text-anchor="middle" x="308.5" y="-103.67" font-family="Helvetica,sans-Serif" font-size="14.00">⋯ Modify</text>
<text text-anchor="middle" x="308.5" y="-88.67" font-family="Helvetica,sans-Serif" font-size="14.00">packages/web&#45;docs/pages/advanced/modules.md</text>
</g>
<!-- start&#45;&gt;2b3093b8&#45;c381&#45;4918&#45;82d5&#45;23585454c783 -->
<g id="edge2" class="edge">
<title>start&#45;&gt;2b3093b8&#45;c381&#45;4918&#45;82d5&#45;23585454c783</title>
<path fill="none" stroke="black" d="M1.38,-99.87C5.1,-99.87 20.31,-99.87 42.11,-99.87"/>
<polygon fill="black" stroke="black" points="42.2,-103.37 52.2,-99.87 42.2,-96.37 42.2,-103.37"/>
<text text-anchor="middle" x="26.76" y="-106.67" font-family="Helvetica,sans-Serif" font-size="14.00">Start</text>
</g>
<!-- end -->
<g id="node2" class="node">
<title>end</title>
</g>
<!-- 2b3093b8&#45;c381&#45;4918&#45;82d5&#45;23585454c783&#45;&gt;end -->
<g id="edge3" class="edge">
<title>2b3093b8&#45;c381&#45;4918&#45;82d5&#45;23585454c783&#45;&gt;end</title>
<path fill="none" stroke="black" d="M564.54,-99.87C584.95,-99.87 601.58,-99.87 611.71,-99.87"/>
<polygon fill="black" stroke="black" points="611.89,-103.37 621.89,-99.87 611.89,-96.37 611.89,-103.37"/>
<text text-anchor="middle" x="593.24" y="-106.67" font-family="Helvetica,sans-Serif" font-size="14.00">Finish</text>
</g>
<!-- 8d0176c9&#45;0a63&#45;4a7b&#45;93ee&#45;c1a4724aa884 -->
<g id="node4" class="node">
<title>8d0176c9&#45;0a63&#45;4a7b&#45;93ee&#45;c1a4724aa884</title>
<polygon fill="white" stroke="black" points="565.5,-36 51.5,-36 51.5,0 565.5,0 565.5,-36"/>
<text text-anchor="middle" x="308.5" y="-14.3" font-family="Helvetica,sans-Serif" font-size="14.00">▶ Ran sandbox for `packages/web&#45;docs/pages/advanced/modules.md`.</text>
</g>
<!-- 2b3093b8&#45;c381&#45;4918&#45;82d5&#45;23585454c783&#45;&gt;8d0176c9&#45;0a63&#45;4a7b&#45;93ee&#45;c1a4724aa884 -->
<g id="edge1" class="edge">
<title>2b3093b8&#45;c381&#45;4918&#45;82d5&#45;23585454c783&#45;&gt;8d0176c9&#45;0a63&#45;4a7b&#45;93ee&#45;c1a4724aa884</title>
<path fill="none" stroke="black" stroke-dasharray="5,2" d="M308.5,-72.72C308.5,-64.27 308.5,-54.89 308.5,-46.36"/>
<polygon fill="black" stroke="black" points="312,-46.15 308.5,-36.15 305,-46.15 312,-46.15"/>
</g>
</g>
</svg>
