<svg width="860" height="329" viewBox="0 0 860 329" fill="none" xmlns="http://www.w3.org/2000/svg">
    <g clip-path="url(#clip0_365_2583)">
      <rect width="860" height="328.074" fill="#080808" />
      <path
        d="M9.99975 117.222C9.69209 115.288 11.1867 113.537 13.1454 113.537H68.5292C70.0952 113.537 71.4289 114.675 71.6749 116.222L90.7015 235.849C91.0092 237.783 89.5145 239.534 87.5558 239.534H32.172C30.606 239.534 29.2723 238.396 29.0264 236.85L9.99975 117.222Z"
        stroke="#664DE5" stroke-width="0.796296" />
      <path
        d="M650.359 9.04402C650.051 7.10964 651.546 5.35852 653.504 5.35852H683.367C684.933 5.35852 686.267 6.49685 686.513 8.04339L697.268 75.6671C697.576 77.6015 696.081 79.3526 694.123 79.3526H664.26C662.694 79.3526 661.36 78.2143 661.114 76.6677L650.359 9.04402Z"
        stroke="#664DE5" stroke-width="0.796296" />
      <path
        d="M615.274 44.4392C614.967 42.5048 616.461 40.7537 618.42 40.7537H630.912C632.478 40.7537 633.812 41.892 634.058 43.4385L639.184 75.667C639.491 77.6014 637.997 79.3525 636.038 79.3525H623.546C621.98 79.3525 620.646 78.2142 620.4 76.6677L615.274 44.4392Z"
        stroke="#664DE5" stroke-width="0.796296" />
      <path
        d="M540.226 218.969C538.848 214.872 541.896 210.63 546.219 210.63V210.63C548.934 210.63 551.346 212.364 552.212 214.937L552.282 215.146C553.661 219.244 550.612 223.485 546.289 223.485V223.485C543.574 223.485 541.162 221.752 540.296 219.178L540.226 218.969Z"
        stroke="#664DE5" stroke-width="0.796296" />
      <path
        d="M657.74 243.22C657.433 241.286 658.927 239.534 660.886 239.534H674.893C676.459 239.534 677.793 240.673 678.039 242.219L683.656 277.535C683.964 279.469 682.469 281.22 680.51 281.22H666.503C664.937 281.22 663.603 280.082 663.357 278.535L657.74 243.22Z"
        stroke="#664DE5" stroke-width="0.796296" />
      <path
        d="M634.347 253.839C634.039 251.905 635.534 250.154 637.493 250.154H641.077C642.643 250.154 643.976 251.292 644.222 252.839L646.461 266.915C646.769 268.85 645.274 270.601 643.316 270.601H639.731C638.165 270.601 636.832 269.463 636.586 267.916L634.347 253.839Z"
        stroke="#664DE5" stroke-width="0.796296" />
      <path
        d="M318.199 161.031H155.831C142.398 161.031 131.509 150.141 131.509 136.709C131.509 123.276 142.398 112.387 155.831 112.387H225.315C226.499 112.387 227.659 112.719 228.664 113.346V113.346C234.057 116.711 231.672 125.037 225.315 125.037H176.101C162.668 125.037 151.779 135.926 151.779 149.359C151.779 162.791 162.668 173.681 176.101 173.681H318.199"
        stroke="#664DE5" stroke-width="0.796296" stroke-linejoin="bevel" />
      <path
        d="M430.996 235.108L430.822 234.639L430.996 235.108L485.536 214.849C487.327 214.184 487.973 211.983 486.825 210.457L467.152 184.294C466.612 183.576 465.766 183.154 464.868 183.154C464.136 183.154 463.486 183.589 463.184 184.24C457.391 196.76 444.71 205.445 430 205.445C415.29 205.445 402.61 196.76 396.816 184.24C396.515 183.589 395.864 183.154 395.133 183.154C394.234 183.154 393.388 183.576 392.848 184.294L373.176 210.457C372.028 211.983 372.674 214.184 374.464 214.849L429.005 235.108C429.647 235.346 430.354 235.346 430.996 235.108Z"
        fill="#080808" stroke="black" />
      <path
        d="M392.848 105.243L393.248 105.543L392.848 105.243L373.176 131.406C372.028 132.932 372.674 135.133 374.464 135.798L400.037 145.297C401.007 145.657 402.081 145.358 402.757 144.603C409.449 137.128 419.174 132.425 430 132.425C440.826 132.425 450.552 137.128 457.243 144.603C457.919 145.358 458.993 145.657 459.963 145.297L485.536 135.798C487.327 135.133 487.973 132.932 486.825 131.406L467.152 105.243C466.612 104.525 465.766 104.103 464.868 104.103L395.133 104.103C394.234 104.103 393.388 104.525 392.848 105.243Z"
        fill="#080808" stroke="black" />
      <circle cx="262.539" cy="52.8591" r="15.2966" fill="#080808" stroke="#664DE5" stroke-width="0.796296" />
      <path d="M262.538 44.9691V60.749" stroke="#664DE5" stroke-width="0.796296" />
      <path d="M270.428 52.8589L254.648 52.8589" stroke="#664DE5" stroke-width="0.796296" />
      <circle cx="262.539" cy="118.296" r="15.2966" fill="#080808" stroke="#664DE5" stroke-width="0.796296" />
      <path d="M262.538 110.406V126.186" stroke="#664DE5" stroke-width="0.796296" />
      <path d="M270.428 118.296L254.648 118.296" stroke="#664DE5" stroke-width="0.796296" />
      <path d="M235.648 273.139L46.5703 273.139" stroke="#664DE5" stroke-width="0.796296" />
      <path d="M239.428 297.732L50.3501 297.732" stroke="#664DE5" stroke-width="0.796296" />
      <path d="M243.208 322.324L54.1304 322.324" stroke="#664DE5" stroke-width="0.796296" />
      <path
        d="M354.656 52.8715H556.866C568.403 52.8715 577.755 62.2235 577.755 73.7599V73.7599C577.755 85.2962 587.107 94.6482 598.643 94.6482H740.674"
        stroke="#664DE5" stroke-width="0.796296" />
      <path
        d="M290.158 52.8715H521.752C533.288 52.8715 542.64 62.2235 542.64 73.7599V73.7599C542.64 85.2962 551.992 94.6482 563.528 94.6482H648.628"
        stroke="#664DE5" stroke-width="0.796296" />
      <path
        d="M464.545 52.8715H376.246C358.026 52.8715 343.255 67.6422 343.255 85.8628V85.8628C343.255 104.083 328.484 118.854 310.264 118.854H289.377"
        stroke="#664DE5" stroke-width="0.796296" />
      <path
        d="M394.62 260.528H594.651C596.41 260.528 597.836 261.954 597.836 263.713V311.957C597.836 313.716 599.262 315.142 601.021 315.142H785.687"
        stroke="#664DE5" stroke-width="0.796296" />
      <path
        d="M805.803 253.664H735.206C734.61 253.664 734.025 253.832 733.52 254.147L723.397 260.465C720.681 262.159 721.882 266.352 725.083 266.352H785.473C798.946 266.352 809.868 277.274 809.868 290.747C809.868 294.994 808.782 298.987 806.874 302.464C820.347 302.464 830.198 291.532 830.198 278.059C830.198 264.586 819.276 253.664 805.803 253.664Z"
        fill="#080808" />
      <path
        d="M806.874 302.464C820.347 302.464 830.198 291.532 830.198 278.059C830.198 264.586 819.276 253.664 805.803 253.664H735.206C734.61 253.664 734.025 253.832 733.52 254.147L723.397 260.465C720.681 262.159 721.882 266.352 725.083 266.352H785.473C798.946 266.352 809.868 277.274 809.868 290.747C809.868 304.22 798.946 315.142 785.473 315.142"
        stroke="#664DE5" stroke-width="0.796296" stroke-linejoin="bevel" />
      <path
        d="M698.012 248.683C697.703 246.748 699.198 244.996 701.157 244.996H716.884C718.458 244.996 719.797 246.146 720.033 247.702L723.776 272.306C724.069 274.233 722.577 275.97 720.627 275.97H705.083C703.517 275.97 702.184 274.832 701.937 273.287L698.012 248.683Z"
        fill="#080808" stroke="#664DE5" stroke-width="0.796296" />
      <path
        d="M66.5172 42.6682H152.991C153.588 42.6682 154.172 42.8356 154.678 43.1512L169.314 52.2855C172.03 53.9804 170.829 58.1729 167.628 58.1729H91.3618C74.8975 58.1729 61.5506 71.5198 61.5506 87.9841C61.5506 93.1566 62.868 98.0214 65.1855 102.261C49.3392 101.565 36.7061 88.4974 36.7061 72.4794C36.7061 56.0151 50.053 42.6682 66.5172 42.6682Z"
        fill="#080808" />
      <path
        d="M66.5172 102.291C50.053 102.291 36.7061 88.9436 36.7061 72.4794C36.7061 56.0151 50.053 42.6682 66.5172 42.6682H152.991C153.588 42.6682 154.172 42.8356 154.678 43.1512L169.314 52.2855C172.03 53.9804 170.829 58.1729 167.628 58.1729H91.3618C74.8975 58.1729 61.5506 71.5198 61.5506 87.9841C61.5506 104.448 74.8976 117.795 91.3618 117.795"
        stroke="#664DE5" stroke-width="0.796296" stroke-linejoin="bevel" />
      <path
        d="M128.075 20.5495C127.766 18.6146 129.261 16.8624 131.22 16.8624H191.742C193.307 16.8624 194.64 17.9999 194.887 19.5457L204.87 82.1117C205.179 84.0465 203.684 85.7988 201.725 85.7988H141.203C139.638 85.7988 138.304 84.6613 138.058 83.1154L128.075 20.5495Z"
        stroke="#664DE5" stroke-width="0.796296" />
      <path
        d="M136.211 11.8676C135.902 9.93275 137.397 8.18054 139.356 8.18054H182.29C183.865 8.18054 185.203 9.33044 185.439 10.8867L194.957 73.4526C195.251 75.3805 193.758 77.1169 191.809 77.1169H149.339C147.774 77.1169 146.44 75.9794 146.194 74.4336L136.211 11.8676Z"
        fill="#080808" stroke="#664DE5" stroke-width="0.796296" />
      <path
        d="M162.668 27.5354C162.355 25.5986 163.85 23.8419 165.812 23.8419H221.97C223.533 23.8419 224.865 24.9759 225.115 26.5189L226.03 32.1845C226.343 34.1213 224.848 35.8779 222.886 35.8779H166.728C165.165 35.8779 163.833 34.7439 163.584 33.201L162.668 27.5354Z"
        fill="#080808" stroke="#664DE5" stroke-width="0.796296" />
      <path
        d="M166.807 53.1124C166.494 51.1756 167.99 49.419 169.952 49.419H226.11C227.673 49.419 229.005 50.553 229.254 52.0959L230.17 57.7616C230.483 59.6984 228.988 61.455 227.026 61.455H170.868C169.305 61.455 167.973 60.321 167.723 58.7781L166.807 53.1124Z"
        fill="#080808" stroke="#664DE5" stroke-width="0.796296" />
      <path
        d="M20.6545 102.855C20.3469 100.921 21.8415 99.1695 23.8002 99.1695H88.9151C90.4811 99.1695 91.8148 100.308 92.0607 101.854L114.241 241.31C114.549 243.245 113.054 244.996 111.095 244.996H45.9805C44.4145 244.996 43.0809 243.857 42.8349 242.311L20.6545 102.855Z"
        fill="#080808" stroke="#664DE5" stroke-width="0.796296" />
      <path
        d="M35.0896 114.512C34.7819 112.577 36.2766 110.826 38.2352 110.826H41.2194C42.7854 110.826 44.1191 111.965 44.3651 113.511L62.95 230.361C63.2577 232.296 61.7631 234.047 59.8044 234.047H56.8202C55.2542 234.047 53.9205 232.909 53.6745 231.362L35.0896 114.512Z"
        fill="#080808" />
      <path
        d="M58.7816 148.719C58.4842 146.789 59.9771 145.048 61.9296 145.048H64.9187C66.4905 145.048 67.8273 146.195 68.0667 147.748L80.7998 230.377C81.0972 232.306 79.6042 234.047 77.6518 234.047H74.6627C73.0909 234.047 71.7541 232.9 71.5147 231.347L58.7816 148.719Z"
        fill="#080808" />
      <path
        d="M73.8728 131.753C73.573 129.822 75.0663 128.079 77.0203 128.079H80.0082C81.5786 128.079 82.9146 129.224 83.1556 130.776L98.624 230.373C98.9239 232.304 97.4305 234.047 95.4765 234.047H92.4886C90.9182 234.047 89.5822 232.902 89.3412 231.35L73.8728 131.753Z"
        fill="#080808" />
      <path
        d="M35.0896 114.512C34.7819 112.577 36.2766 110.826 38.2352 110.826H41.2194C42.7854 110.826 44.1191 111.965 44.3651 113.511L62.95 230.361C63.2577 232.296 61.7631 234.047 59.8044 234.047H56.8202C55.2542 234.047 53.9205 232.909 53.6745 231.362L35.0896 114.512Z"
        stroke="#664DE5" stroke-width="0.796296" />
      <path
        d="M58.7816 148.719C58.4842 146.789 59.9771 145.048 61.9296 145.048H64.9187C66.4905 145.048 67.8273 146.195 68.0667 147.748L80.7998 230.377C81.0972 232.306 79.6042 234.047 77.6518 234.047H74.6627C73.0909 234.047 71.7541 232.9 71.5147 231.347L58.7816 148.719Z"
        stroke="#664DE5" stroke-width="0.796296" />
      <path
        d="M73.8728 131.753C73.573 129.822 75.0663 128.079 77.0203 128.079H80.0082C81.5786 128.079 82.9146 129.224 83.1556 130.776L98.624 230.373C98.9239 232.304 97.4305 234.047 95.4765 234.047H92.4886C90.9182 234.047 89.5822 232.902 89.3412 231.35L73.8728 131.753Z"
        stroke="#664DE5" stroke-width="0.796296" />
      <path
        d="M730.644 58.9669C730.337 57.0326 731.831 55.2814 733.79 55.2814H788.781C790.347 55.2814 791.681 56.4198 791.927 57.9663L804.209 135.185C804.516 137.12 803.022 138.871 801.063 138.871H746.072C744.506 138.871 743.172 137.732 742.926 136.186L730.644 58.9669Z"
        stroke="#664DE5" stroke-width="0.796296" />
      <path
        d="M730.644 11.866C730.337 9.93166 731.831 8.18054 733.79 8.18054H736.774C738.34 8.18054 739.674 9.31887 739.92 10.8654L758.505 127.716C758.812 129.65 757.318 131.401 755.359 131.401H752.375C750.809 131.401 749.475 130.263 749.229 128.716L730.644 11.866Z"
        fill="#080808" />
      <path
        d="M754.336 46.0729C754.039 44.1432 755.532 42.4026 757.484 42.4026H760.473C762.045 42.4026 763.382 43.5492 763.621 45.1027L776.354 127.731C776.652 129.66 775.159 131.401 773.206 131.401H770.217C768.646 131.401 767.309 130.254 767.069 128.701L754.336 46.0729Z"
        fill="#080808" />
      <path
        d="M769.428 29.1075C769.128 27.1767 770.621 25.4335 772.575 25.4335H775.563C777.133 25.4335 778.469 26.5781 778.71 28.1299L794.179 127.727C794.479 129.658 792.985 131.401 791.031 131.401H788.043C786.473 131.401 785.137 130.257 784.896 128.705L769.428 29.1075Z"
        fill="#080808" />
      <path
        d="M730.644 11.866C730.337 9.93166 731.831 8.18054 733.79 8.18054H736.774C738.34 8.18054 739.674 9.31887 739.92 10.8654L758.505 127.716C758.812 129.65 757.318 131.401 755.359 131.401H752.375C750.809 131.401 749.475 130.263 749.229 128.716L730.644 11.866Z"
        stroke="#664DE5" stroke-width="0.796296" />
      <path
        d="M754.336 46.0729C754.039 44.1432 755.532 42.4026 757.484 42.4026H760.473C762.045 42.4026 763.382 43.5492 763.621 45.1027L776.354 127.731C776.652 129.66 775.159 131.401 773.206 131.401H770.217C768.646 131.401 767.309 130.254 767.069 128.701L754.336 46.0729Z"
        stroke="#664DE5" stroke-width="0.796296" />
      <path
        d="M769.428 29.1075C769.128 27.1767 770.621 25.4335 772.575 25.4335H775.563C777.133 25.4335 778.469 26.5781 778.71 28.1299L794.179 127.727C794.479 129.658 792.985 131.401 791.031 131.401H788.043C786.473 131.401 785.137 130.257 784.896 128.705L769.428 29.1075Z"
        stroke="#664DE5" stroke-width="0.796296" />
      <path
        d="M555.028 139.19C554.129 139.639 553.044 139.152 552.781 138.182L551.497 133.458C551.309 132.764 550.679 132.283 549.96 132.283L531.371 132.283C530.596 132.283 529.934 131.725 529.802 130.961L528.206 121.722C528.038 120.748 528.787 119.858 529.775 119.858L545.425 119.858C546.505 119.858 547.272 118.806 546.941 117.778L546.22 115.535C545.811 114.265 547.052 113.085 548.3 113.558L577.931 124.781C579.229 125.273 579.32 127.075 578.077 127.695L555.028 139.19Z"
        fill="#080808" stroke="#664DE5" stroke-width="0.796296" />
      <path
        d="M626.435 139.19C625.535 139.639 624.45 139.152 624.187 138.182L622.904 133.458C622.715 132.764 622.085 132.283 621.367 132.283L602.777 132.283C602.002 132.283 601.34 131.725 601.208 130.961L599.612 121.722C599.444 120.748 600.194 119.858 601.182 119.858L616.831 119.858C617.911 119.858 618.678 118.806 618.348 117.778L617.626 115.535C617.218 114.265 618.459 113.085 619.706 113.558L649.337 124.781C650.636 125.273 650.726 127.075 649.483 127.695L626.435 139.19Z"
        fill="#080808" stroke="#664DE5" stroke-width="0.796296" />
      <path
        d="M697.842 139.19C696.943 139.639 695.858 139.152 695.595 138.182L694.311 133.458C694.123 132.764 693.493 132.283 692.774 132.283L674.185 132.283C673.41 132.283 672.748 131.725 672.616 130.961L671.02 121.722C670.852 120.748 671.601 119.858 672.589 119.858L688.239 119.858C689.319 119.858 690.086 118.806 689.755 117.778L689.034 115.535C688.625 114.265 689.866 113.085 691.114 113.558L720.745 124.781C722.043 125.273 722.134 127.075 720.891 127.695L697.842 139.19Z"
        fill="#080808" stroke="#664DE5" stroke-width="0.796296" />
      <path
        d="M416.307 284.867C417.207 284.418 418.291 284.905 418.555 285.875L419.838 290.599C420.027 291.293 420.656 291.774 421.375 291.774L439.964 291.774C440.739 291.774 441.402 292.332 441.534 293.096L443.129 302.335C443.298 303.309 442.548 304.199 441.56 304.199L425.91 304.199C424.83 304.199 424.063 305.251 424.394 306.279L425.115 308.522C425.524 309.792 424.283 310.972 423.035 310.499L393.405 299.276C392.106 298.784 392.015 296.982 393.258 296.362L416.307 284.867Z"
        fill="#080808" stroke="#664DE5" stroke-width="0.796296" />
      <path
        d="M253.434 201.864C253.14 199.936 254.632 198.198 256.583 198.198H318.479C320.053 198.198 321.39 199.347 321.628 200.902L339.618 318.658C339.913 320.586 338.42 322.324 336.469 322.324H274.573C273 322.324 271.662 321.175 271.424 319.62L253.434 201.864Z"
        stroke="#664DE5" stroke-width="0.796296" />
      <path fill-rule="evenodd" clip-rule="evenodd"
        d="M311.986 211.999C311.106 211.999 310.393 212.712 310.393 213.592V226.994C310.393 227.72 309.901 228.35 309.205 228.558C307.03 229.208 304.949 230.076 302.987 231.136C302.348 231.481 301.554 231.384 301.04 230.87L291.562 221.392C290.94 220.77 289.931 220.77 289.309 221.392L279.823 230.878C279.201 231.5 279.201 232.509 279.823 233.131L289.302 242.609C289.815 243.123 289.913 243.917 289.567 244.556C288.507 246.517 287.64 248.598 286.99 250.773C286.782 251.469 286.152 251.961 285.426 251.961H272.021C271.142 251.961 270.429 252.674 270.429 253.554V266.97C270.429 267.849 271.142 268.562 272.021 268.562H285.426C286.152 268.562 286.782 269.055 286.99 269.75C287.64 271.926 288.508 274.007 289.569 275.969C289.914 276.608 289.817 277.402 289.303 277.915L279.826 287.392C279.204 288.014 279.204 289.023 279.826 289.645L289.313 299.131C289.935 299.753 290.943 299.753 291.565 299.131L301.043 289.653C301.556 289.14 302.35 289.042 302.989 289.387C304.951 290.447 307.031 291.314 309.205 291.964C309.901 292.172 310.393 292.802 310.393 293.528V306.93C310.393 307.81 311.106 308.523 311.986 308.523H325.402C326.282 308.523 326.995 307.81 326.995 306.93V293.527C326.995 292.801 327.487 292.171 328.183 291.963C330.357 291.313 332.437 290.446 334.398 289.386C335.037 289.041 335.831 289.138 336.344 289.652L345.823 299.131C346.445 299.753 347.454 299.753 348.076 299.131L357.562 289.645C358.184 289.023 358.184 288.014 357.562 287.392L348.083 277.913C347.57 277.4 347.472 276.606 347.817 275.967C348.877 274.005 349.745 271.925 350.395 269.75C350.603 269.055 351.233 268.562 351.959 268.562H365.36C366.24 268.562 366.953 267.849 366.953 266.97V253.554C366.953 252.674 366.24 251.961 365.36 251.961H351.959C351.233 251.961 350.603 251.469 350.395 250.773C349.745 248.599 348.878 246.519 347.819 244.558C347.474 243.919 347.571 243.125 348.085 242.612L357.566 233.131C358.187 232.509 358.187 231.5 357.566 230.878L348.079 221.392C347.457 220.77 346.449 220.77 345.827 221.392L336.347 230.872C335.833 231.385 335.039 231.483 334.4 231.137C332.439 230.077 330.358 229.209 328.183 228.559C327.487 228.351 326.995 227.721 326.995 226.995V213.592C326.995 212.712 326.282 211.999 325.402 211.999H311.986ZM318.695 271.171C324.72 271.171 329.604 266.287 329.604 260.262C329.604 254.238 324.72 249.354 318.695 249.354C312.67 249.354 307.786 254.238 307.786 260.262C307.786 266.287 312.67 271.171 318.695 271.171Z"
        fill="#080808" />
      <path
        d="M309.205 228.558L309.319 228.94L309.205 228.558ZM302.987 231.136L302.797 230.786L302.987 231.136ZM301.04 230.87L300.759 231.152L301.04 230.87ZM291.562 221.392L291.843 221.11H291.843L291.562 221.392ZM289.309 221.392L289.591 221.673L289.309 221.392ZM279.823 230.878L279.541 230.597L279.823 230.878ZM289.567 244.556L289.217 244.367L289.567 244.556ZM286.99 250.773L287.371 250.887L286.99 250.773ZM286.99 269.75L287.372 269.636L286.99 269.75ZM289.569 275.969L289.919 275.78H289.919L289.569 275.969ZM289.303 277.915L289.585 278.197H289.585L289.303 277.915ZM279.826 287.392L279.545 287.111L279.826 287.392ZM279.826 289.645L279.545 289.926L279.826 289.645ZM289.313 299.131L289.594 298.85H289.594L289.313 299.131ZM291.565 299.131L291.283 298.85L291.565 299.131ZM301.043 289.653L300.761 289.372H300.761L301.043 289.653ZM302.989 289.387L302.8 289.738L302.989 289.387ZM309.205 291.964L309.091 292.345L309.205 291.964ZM328.183 291.963L328.297 292.345H328.297L328.183 291.963ZM334.398 289.386L334.208 289.036H334.208L334.398 289.386ZM336.344 289.652L336.063 289.934L336.344 289.652ZM357.562 289.645L357.844 289.926L357.562 289.645ZM357.562 287.392L357.844 287.111L357.562 287.392ZM348.083 277.913L348.365 277.632L348.083 277.913ZM347.817 275.967L347.467 275.778L347.467 275.778L347.817 275.967ZM350.395 269.75L350.013 269.636L350.395 269.75ZM350.395 250.773L350.777 250.659V250.659L350.395 250.773ZM347.819 244.558L348.169 244.369L347.819 244.558ZM348.085 242.612L348.366 242.893L348.085 242.612ZM357.566 233.131L357.284 232.849L357.566 233.131ZM357.566 230.878L357.284 231.16L357.566 230.878ZM348.079 221.392L347.797 221.673V221.673L348.079 221.392ZM345.827 221.392L346.108 221.673V221.673L345.827 221.392ZM336.347 230.872L336.065 230.59L336.347 230.872ZM334.4 231.137L334.59 230.787L334.4 231.137ZM328.183 228.559L328.069 228.941H328.069L328.183 228.559ZM310.792 213.592C310.792 212.932 311.326 212.397 311.986 212.397V211.601C310.887 211.601 309.995 212.492 309.995 213.592H310.792ZM310.792 226.994V213.592H309.995V226.994H310.792ZM309.319 228.94C310.175 228.684 310.792 227.905 310.792 226.994H309.995C309.995 227.535 309.627 228.017 309.091 228.177L309.319 228.94ZM303.176 231.486C305.114 230.439 307.17 229.582 309.319 228.94L309.091 228.177C306.89 228.835 304.783 229.713 302.797 230.786L303.176 231.486ZM300.759 231.152C301.403 231.796 302.39 231.911 303.176 231.486L302.797 230.786C302.306 231.052 301.705 230.972 301.322 230.589L300.759 231.152ZM291.28 221.673L300.759 231.152L301.322 230.589L291.843 221.11L291.28 221.673ZM289.591 221.673C290.057 221.207 290.814 221.207 291.28 221.673L291.843 221.11C291.066 220.333 289.805 220.333 289.028 221.11L289.591 221.673ZM280.104 231.16L289.591 221.673L289.028 221.11L279.541 230.597L280.104 231.16ZM280.104 232.849C279.638 232.383 279.638 231.626 280.104 231.16L279.541 230.597C278.764 231.374 278.764 232.635 279.541 233.412L280.104 232.849ZM289.583 242.328L280.104 232.849L279.541 233.412L289.02 242.891L289.583 242.328ZM289.918 244.745C290.342 243.959 290.227 242.972 289.583 242.328L289.02 242.891C289.403 243.274 289.483 243.875 289.217 244.367L289.918 244.745ZM287.371 250.887C288.013 248.739 288.87 246.683 289.918 244.745L289.217 244.367C288.144 246.352 287.266 248.458 286.608 250.659L287.371 250.887ZM285.426 252.359C286.336 252.359 287.116 251.743 287.371 250.887L286.608 250.659C286.448 251.195 285.967 251.563 285.426 251.563V252.359ZM272.021 252.359H285.426V251.563H272.021V252.359ZM270.827 253.554C270.827 252.894 271.362 252.359 272.021 252.359V251.563C270.922 251.563 270.031 252.454 270.031 253.554H270.827ZM270.827 266.97V253.554H270.031V266.97H270.827ZM272.021 268.164C271.362 268.164 270.827 267.629 270.827 266.97H270.031C270.031 268.069 270.922 268.96 272.021 268.96V268.164ZM285.426 268.164H272.021V268.96H285.426V268.164ZM287.372 269.636C287.116 268.781 286.337 268.164 285.426 268.164V268.96C285.967 268.96 286.449 269.329 286.609 269.864L287.372 269.636ZM289.919 275.78C288.871 273.841 288.014 271.785 287.372 269.636L286.609 269.864C287.267 272.066 288.145 274.173 289.218 276.158L289.919 275.78ZM289.585 278.197C290.229 277.553 290.344 276.566 289.919 275.78L289.218 276.158C289.484 276.65 289.404 277.251 289.021 277.634L289.585 278.197ZM280.108 287.674L289.585 278.197L289.021 277.634L279.545 287.111L280.108 287.674ZM280.108 289.363C279.641 288.897 279.641 288.14 280.108 287.674L279.545 287.111C278.767 287.888 278.767 289.149 279.545 289.926L280.108 289.363ZM289.594 298.85L280.108 289.363L279.545 289.926L289.031 299.413L289.594 298.85ZM291.283 298.85C290.817 299.316 290.061 299.316 289.594 298.85L289.031 299.413C289.809 300.19 291.069 300.19 291.847 299.413L291.283 298.85ZM300.761 289.372L291.283 298.85L291.847 299.413L301.324 289.935L300.761 289.372ZM303.179 289.037C302.393 288.612 301.406 288.727 300.761 289.372L301.324 289.935C301.707 289.552 302.308 289.472 302.8 289.738L303.179 289.037ZM309.319 291.583C307.171 290.941 305.116 290.084 303.179 289.037L302.8 289.738C304.785 290.81 306.891 291.688 309.091 292.345L309.319 291.583ZM310.792 293.528C310.792 292.617 310.175 291.838 309.319 291.583L309.091 292.345C309.627 292.506 309.995 292.987 309.995 293.528H310.792ZM310.792 306.93V293.528H309.995V306.93H310.792ZM311.986 308.125C311.326 308.125 310.792 307.59 310.792 306.93H309.995C309.995 308.03 310.887 308.921 311.986 308.921V308.125ZM325.402 308.125H311.986V308.921H325.402V308.125ZM326.596 306.93C326.596 307.59 326.062 308.125 325.402 308.125V308.921C326.501 308.921 327.393 308.03 327.393 306.93H326.596ZM326.596 293.527V306.93H327.393V293.527H326.596ZM328.069 291.582C327.213 291.837 326.596 292.617 326.596 293.527H327.393C327.393 292.986 327.761 292.505 328.297 292.345L328.069 291.582ZM334.208 289.036C332.271 290.083 330.216 290.94 328.069 291.582L328.297 292.345C330.497 291.687 332.602 290.809 334.587 289.737L334.208 289.036ZM336.626 289.37C335.982 288.726 334.994 288.611 334.208 289.036L334.587 289.737C335.079 289.471 335.68 289.551 336.063 289.934L336.626 289.37ZM346.105 298.85L336.626 289.37L336.063 289.934L345.542 299.413L346.105 298.85ZM347.794 298.85C347.328 299.316 346.571 299.316 346.105 298.85L345.542 299.413C346.319 300.19 347.58 300.19 348.357 299.413L347.794 298.85ZM357.281 289.363L347.794 298.85L348.357 299.413L357.844 289.926L357.281 289.363ZM357.281 287.674C357.747 288.14 357.747 288.897 357.281 289.363L357.844 289.926C358.621 289.149 358.621 287.888 357.844 287.111L357.281 287.674ZM347.802 278.195L357.281 287.674L357.844 287.111L348.365 277.632L347.802 278.195ZM347.467 275.778C347.042 276.564 347.157 277.551 347.802 278.195L348.365 277.632C347.982 277.249 347.902 276.648 348.168 276.156L347.467 275.778ZM350.013 269.636C349.371 271.784 348.514 273.84 347.467 275.778L348.168 276.156C349.24 274.171 350.118 272.065 350.776 269.864L350.013 269.636ZM351.959 268.164C351.048 268.164 350.269 268.781 350.013 269.636L350.776 269.864C350.936 269.329 351.418 268.96 351.959 268.96V268.164ZM365.36 268.164H351.959V268.96H365.36V268.164ZM366.555 266.97C366.555 267.629 366.02 268.164 365.36 268.164V268.96C366.46 268.96 367.351 268.069 367.351 266.97H366.555ZM366.555 253.554V266.97H367.351V253.554H366.555ZM365.36 252.359C366.02 252.359 366.555 252.894 366.555 253.554H367.351C367.351 252.454 366.46 251.563 365.36 251.563V252.359ZM351.959 252.359H365.36V251.563H351.959V252.359ZM350.014 250.887C350.269 251.743 351.049 252.359 351.959 252.359V251.563C351.418 251.563 350.937 251.195 350.777 250.659L350.014 250.887ZM347.468 244.747C348.515 246.684 349.372 248.739 350.014 250.887L350.777 250.659C350.119 248.459 349.241 246.353 348.169 244.369L347.468 244.747ZM347.803 242.33C347.159 242.974 347.044 243.961 347.468 244.747L348.169 244.369C347.903 243.877 347.983 243.276 348.366 242.893L347.803 242.33ZM357.284 232.849L347.803 242.33L348.366 242.893L357.847 233.412L357.284 232.849ZM357.284 231.16C357.75 231.626 357.75 232.383 357.284 232.849L357.847 233.412C358.624 232.635 358.624 231.374 357.847 230.597L357.284 231.16ZM347.797 221.673L357.284 231.16L357.847 230.597L348.36 221.11L347.797 221.673ZM346.108 221.673C346.575 221.207 347.331 221.207 347.797 221.673L348.36 221.11C347.583 220.333 346.323 220.333 345.545 221.11L346.108 221.673ZM336.628 231.153L346.108 221.673L345.545 221.11L336.065 230.59L336.628 231.153ZM334.211 231.488C334.997 231.912 335.984 231.797 336.628 231.153L336.065 230.59C335.682 230.973 335.081 231.053 334.59 230.787L334.211 231.488ZM328.069 228.941C330.217 229.583 332.273 230.44 334.211 231.488L334.59 230.787C332.604 229.714 330.498 228.836 328.297 228.178L328.069 228.941ZM326.596 226.995C326.596 227.906 327.213 228.685 328.069 228.941L328.297 228.178C327.761 228.017 327.393 227.536 327.393 226.995H326.596ZM326.596 213.592V226.995H327.393V213.592H326.596ZM325.402 212.397C326.062 212.397 326.596 212.932 326.596 213.592H327.393C327.393 212.492 326.501 211.601 325.402 211.601V212.397ZM311.986 212.397H325.402V211.601H311.986V212.397ZM329.205 260.262C329.205 266.067 324.5 270.773 318.695 270.773V271.569C324.939 271.569 330.002 266.507 330.002 260.262H329.205ZM318.695 249.752C324.5 249.752 329.205 254.458 329.205 260.262H330.002C330.002 254.018 324.939 248.956 318.695 248.956V249.752ZM308.184 260.262C308.184 254.458 312.89 249.752 318.695 249.752V248.956C312.45 248.956 307.388 254.018 307.388 260.262H308.184ZM318.695 270.773C312.89 270.773 308.184 266.067 308.184 260.262H307.388C307.388 266.507 312.45 271.569 318.695 271.569V270.773Z"
        fill="#664DE5" />
      <path
        d="M675.015 14.9098C678.233 9.33572 686.279 9.33573 689.497 14.9098L713.674 56.7854C716.892 62.3595 712.869 69.327 706.433 69.327H658.079C651.643 69.327 647.62 62.3594 650.838 56.7854L675.015 14.9098Z"
        fill="#080808" stroke="#664DE5" stroke-width="0.796296" />
      <circle cx="682.256" cy="57.8602" r="5.02623" transform="rotate(15 682.256 57.8602)" fill="#080808" stroke="#664DE5"
        stroke-width="0.796296" />
      <path
        d="M686.871 25.5671C686.986 23.0738 685.009 20.9832 682.513 20.9582C680.017 20.9333 677.999 22.9841 678.064 25.4791L678.578 45.3134C678.63 47.3011 680.246 48.8914 682.234 48.9113C684.222 48.9311 685.869 47.3735 685.961 45.3871L686.871 25.5671Z"
        fill="#080808" stroke="#664DE5" stroke-width="0.796296" />
      <path
        d="M128.073 201.883C127.765 199.949 129.26 198.198 131.219 198.198H228.387C229.953 198.198 231.286 199.336 231.532 200.883L239.914 253.58C240.221 255.515 238.727 257.266 236.768 257.266H139.6C138.034 257.266 136.7 256.128 136.455 254.581L128.073 201.883Z"
        stroke="#664DE5" stroke-width="0.796296" />
      <path
        d="M143.031 223.082L152.301 207.77H162.849L157.096 216.892H162.849L154.858 229.272H162.849L143.031 248.819L150.383 235.461H143.031L150.383 223.082H143.031Z"
        stroke="#664DE5" stroke-width="0.8" />
      <path
        d="M172.033 223.082L181.303 207.77H191.851L186.098 216.892H191.851L183.86 229.272H191.851L172.033 248.819L179.385 235.461H172.033L179.385 223.082H172.033Z"
        stroke="#664DE5" stroke-width="0.8" />
      <path
        d="M201.035 223.082L210.304 207.77H220.853L215.099 216.892H220.853L212.862 229.272H220.853L201.035 248.819L208.387 235.462H201.035L208.387 223.082H201.035Z"
        stroke="#664DE5" stroke-width="0.796296" />
      <path
        d="M484.156 314.243L492.711 286.212C493.17 284.708 495.298 284.708 495.757 286.212L502.789 309.252C503.247 310.756 505.376 310.756 505.835 309.252L512.866 286.212C513.325 284.708 515.454 284.708 515.913 286.212L522.944 309.252C523.403 310.756 525.532 310.756 525.991 309.252L533.022 286.212C533.481 284.708 535.61 284.708 536.069 286.212L543.1 309.252C543.559 310.756 545.688 310.756 546.146 309.252L554.701 281.22"
        stroke="#664DE5" stroke-width="0.796296" />
      <path d="M464.545 288.105H471.119L473.948 307.358H467.374L464.545 288.105Z" stroke="#664DE5"
        stroke-width="0.796296" />
      <path d="M469.248 277.57H483.016L488.942 317.893H475.173L469.248 277.57Z" fill="#080808" stroke="#664DE5"
        stroke-width="0.796296" />
      <path d="M566 288.105H572.574L575.404 307.358H568.829L566 288.105Z" stroke="#664DE5" stroke-width="0.796296" />
      <path d="M550.64 277.57H564.409L570.334 317.893H556.565L550.64 277.57Z" fill="#080808" stroke="#664DE5"
        stroke-width="0.796296" />
      <path
        d="M541.711 161.141H805.275C818.938 161.141 830.014 172.217 830.014 185.88C830.014 199.543 818.938 210.619 805.275 210.619H567.391C560.925 210.619 558.5 219.087 563.985 222.51V222.51C565.007 223.147 566.187 223.485 567.391 223.485H825.892C839.555 223.485 850.631 212.409 850.631 198.747C850.631 185.084 839.555 174.008 825.893 174.008H541.711"
        stroke="#664DE5" stroke-width="0.796296" stroke-linejoin="bevel" />
    </g>
    <defs>
      <clipPath id="clip0_365_2583">
        <rect width="860" height="328.074" fill="#080808" />
      </clipPath>
    </defs>
  </svg>
